REM DIRINDEX 1\2,1\3,1\4
REM DIRNAME cjc031,folder01,folder02,folder03
TITLE ""
FILE "CD1-08.mp3" MP3
  TRACK 01 AUDIO
    TITLE "2:cjc031_0324"
    INDEX 01 00:00:00
  TRACK 02 AUDIO
    TITLE "3:cjc031_0325"
    INDEX 01 00:01:11
  TRACK 03 AUDIO
    TITLE "2:cjc031_0326"
    INDEX 01 00:02:57
  TRACK 04 AUDIO
    TITLE "3:cjc031_0327"
    INDEX 01 00:04:15
  TRACK 05 AUDIO
    TITLE "2:cjc031_0328"
    INDEX 01 00:05:57
  TRACK 06 AUDIO
    TITLE "3:cjc031_0329"
    INDEX 01 00:07:05
  TRACK 07 AUDIO
    TITLE "2:cjc031_0330"
    INDEX 01 00:08:70
  TRACK 08 AUDIO
    TITLE "3:cjc031_0331"
    INDEX 01 00:10:19
  TRACK 09 AUDIO
    TITLE "2:cjc031_0332"
    INDEX 01 00:11:64
  TRACK 10 AUDIO
    TITLE "3:cjc031_0333"
    INDEX 01 00:12:73
  TRACK 11 AUDIO
    TITLE "2:cjc031_0334"
    INDEX 01 00:14:31
  TRACK 12 AUDIO
    TITLE "3:cjc031_0335"
    INDEX 01 00:15:56
  TRACK 13 AUDIO
    TITLE "2:cjc031_0336"
    INDEX 01 00:17:16
  TRACK 14 AUDIO
    TITLE "3:cjc031_0337"
    INDEX 01 00:18:60
  TRACK 15 AUDIO
    TITLE "2:cjc031_0338"
    INDEX 01 00:20:26
  TRACK 16 AUDIO
    TITLE "3:cjc031_0339"
    INDEX 01 00:21:58
  TRACK 17 AUDIO
    TITLE "2:cjc031_0340"
    INDEX 01 00:23:18
  TRACK 18 AUDIO
    TITLE "3:cjc031_0341"
    INDEX 01 00:24:35
  TRACK 19 AUDIO
    TITLE "2:cjc031_0342"
    INDEX 01 00:26:17
  TRACK 20 AUDIO
    TITLE "3:cjc031_0343"
    INDEX 01 00:27:51
  TRACK 21 AUDIO
    TITLE "2:cjc031_0344"
    INDEX 01 00:29:48
  TRACK 22 AUDIO
    TITLE "3:cjc031_0345"
    INDEX 01 00:30:73
  TRACK 23 AUDIO
    TITLE "2:cjc031_0346"
    INDEX 01 00:32:72
  TRACK 24 AUDIO
    TITLE "3:cjc031_0347"
    INDEX 01 00:34:10
  TRACK 25 AUDIO
    TITLE "2:cjc031_0348"
    INDEX 01 00:35:57
  TRACK 26 AUDIO
    TITLE "3:cjc031_0349"
    INDEX 01 00:36:72
  TRACK 27 AUDIO
    TITLE "2:cjc031_0350"
    INDEX 01 00:38:31
  TRACK 28 AUDIO
    TITLE "3:cjc031_0351"
    INDEX 01 00:39:52
  TRACK 29 AUDIO
    TITLE "2:cjc031_0352"
    INDEX 01 00:41:26
  TRACK 30 AUDIO
    TITLE "3:cjc031_0353"
    INDEX 01 00:42:68
  TRACK 31 AUDIO
    TITLE "2:cjc031_0354"
    INDEX 01 00:44:44
  TRACK 32 AUDIO
    TITLE "3:cjc031_0355"
    INDEX 01 00:45:61
  TRACK 33 AUDIO
    TITLE "2:cjc031_0356"
    INDEX 01 00:47:15
  TRACK 34 AUDIO
    TITLE "3:cjc031_0357"
    INDEX 01 00:48:44
  TRACK 35 AUDIO
    TITLE "2:cjc031_0358"
    INDEX 01 00:50:17
  TRACK 36 AUDIO
    TITLE "3:cjc031_0359"
    INDEX 01 00:51:36
  TRACK 37 AUDIO
    TITLE "2:cjc031_0360"
    INDEX 01 00:52:63
  TRACK 38 AUDIO
    TITLE "3:cjc031_0361"
    INDEX 01 00:54:17
  TRACK 39 AUDIO
    TITLE "2:cjc031_0362"
    INDEX 01 00:55:55
  TRACK 40 AUDIO
    TITLE "3:cjc031_0363"
    INDEX 01 00:56:72
  TRACK 41 AUDIO
    TITLE "2:cjc031_0364"
    INDEX 01 00:58:24
  TRACK 42 AUDIO
    TITLE "3:cjc031_0365"
    INDEX 01 00:59:43
  TRACK 43 AUDIO
    TITLE "2:cjc031_0366"
    INDEX 01 01:00:57
  TRACK 44 AUDIO
    TITLE "3:cjc031_0367"
    INDEX 01 01:02:14
  TRACK 45 AUDIO
    TITLE "2:cjc031_0368"
    INDEX 01 01:03:59
  TRACK 46 AUDIO
    TITLE "3:cjc031_0369"
    INDEX 01 01:04:64
  TRACK 47 AUDIO
    TITLE "2:cjc031_0370"
    INDEX 01 01:06:32
  TRACK 48 AUDIO
    TITLE "3:cjc031_0371"
    INDEX 01 01:07:70
  TRACK 49 AUDIO
    TITLE "2:cjc031_0372"
    INDEX 01 01:09:32
  TRACK 50 AUDIO
    TITLE "3:cjc031_0373"
    INDEX 01 01:11:02
  TRACK 51 AUDIO
    TITLE "2:cjc031_0374"
    INDEX 01 01:12:36
  TRACK 52 AUDIO
    TITLE "3:cjc031_0375"
    INDEX 01 01:13:55
  TRACK 53 AUDIO
    TITLE "2:cjc031_0376"
    INDEX 01 01:15:09
  TRACK 54 AUDIO
    TITLE "3:cjc031_0377"
    INDEX 01 01:16:34
  TRACK 55 AUDIO
    TITLE "2:cjc031_0378"
    INDEX 01 01:17:63
  TRACK 56 AUDIO
    TITLE "3:cjc031_0379"
    INDEX 01 01:19:15
  TRACK 57 AUDIO
    TITLE "2:cjc031_0380"
    INDEX 01 01:21:12
  TRACK 58 AUDIO
    TITLE "3:cjc031_0381"
    INDEX 01 01:22:27
  TRACK 59 AUDIO
    TITLE "2:cjc031_0382"
    INDEX 01 01:23:73
  TRACK 60 AUDIO
    TITLE "3:cjc031_0383"
    INDEX 01 01:25:25
  TRACK 61 AUDIO
    TITLE "2:cjc031_0384"
    INDEX 01 01:27:08
  TRACK 62 AUDIO
    TITLE "3:cjc031_0385"
    INDEX 01 01:28:29
  TRACK 63 AUDIO
    TITLE "2:cjc031_0386"
    INDEX 01 01:29:74
  TRACK 64 AUDIO
    TITLE "3:cjc031_0387"
    INDEX 01 01:31:16
  TRACK 65 AUDIO
    TITLE "2:cjc031_0388"
    INDEX 01 01:32:64
  TRACK 66 AUDIO
    TITLE "3:cjc031_0389"
    INDEX 01 01:34:06
  TRACK 67 AUDIO
    TITLE "2:cjc031_0390"
    INDEX 01 01:35:55
  TRACK 68 AUDIO
    TITLE "3:cjc031_0391"
    INDEX 01 01:37:11
  TRACK 69 AUDIO
    TITLE "2:cjc031_0392"
    INDEX 01 01:38:69
  TRACK 70 AUDIO
    TITLE "3:cjc031_0393"
    INDEX 01 01:40:11
  TRACK 71 AUDIO
    TITLE "2:cjc031_0394"
    INDEX 01 01:41:20
  TRACK 72 AUDIO
    TITLE "3:cjc031_0395"
    INDEX 01 01:42:53
  TRACK 73 AUDIO
    TITLE "2:cjc031_0396"
    INDEX 01 01:44:24
  TRACK 74 AUDIO
    TITLE "3:cjc031_0397"
    INDEX 01 01:45:45
  TRACK 75 AUDIO
    TITLE "2:cjc031_0398"
    INDEX 01 01:46:70
  TRACK 76 AUDIO
    TITLE "3:cjc031_0399"
    INDEX 01 01:48:11
  TRACK 77 AUDIO
    TITLE "2:cjc031_0400"
    INDEX 01 01:49:47
  TRACK 78 AUDIO
    TITLE "3:cjc031_0401"
    INDEX 01 01:50:68
  TRACK 79 AUDIO
    TITLE "2:cjc031_0402"
    INDEX 01 01:52:32
  TRACK 80 AUDIO
    TITLE "3:cjc031_0403"
    INDEX 01 01:53:49
  TRACK 81 AUDIO
    TITLE "0:"
    INDEX 01 01:54:68
